<svg xmlns="http://www.w3.org/2000/svg" viewBox="0 0 1024 1024" width="1024" height="1024">
  <g fill="none" stroke="black" stroke-width="45" stroke-linecap="round" stroke-linejoin="round">
    <path d="M 265.14 579.56 L 266.97 581.33"/>
    <path d="M 760.69 448.00 L 758.86 446.22"/>
    <path d="M 857.60 192.00 L 859.43 193.78"/>
    <path d="M 265.14 448.00 L 266.97 446.22"/>
    <path d="M 266.97 446.22 L 265.14 444.44"/>
    <path d="M 760.69 583.11 L 758.86 581.33"/>
    <path d="M 265.14 583.11 L 266.97 581.33"/>
    <path d="M 268.80 311.11 L 266.97 312.89"/>
    <path d="M 760.69 444.44 L 758.86 446.22"/>
    <path d="M 758.86 581.33 L 760.69 579.56"/>
    <path d="M 760.69 446.22 L 265.14 446.22"/>
    <path d="M 760.69 581.33 L 265.14 581.33"/>
    <path d="M 168.23 833.78 L 164.57 830.22 L 162.74 814.22 L 162.74 471.11 L 164.57 197.33 L 171.89 190.22 L 859.43 192.00 L 861.26 830.22 L 857.60 833.78"/>
    <path d="M 859.43 832.00 L 853.94 835.56 L 173.71 835.56 L 166.40 832.00"/>
    <path d="M 265.14 581.33 L 265.14 712.89 L 272.46 716.44 L 758.86 714.67 L 762.51 707.56 L 758.86 311.11 L 270.63 309.33 L 265.14 314.67 L 265.14 581.33 Z"/>
  </g>
</svg>