<svg xmlns="http://www.w3.org/2000/svg" viewBox="0 0 1024 1024" width="1024" height="1024">
  <g fill="none" stroke="black" stroke-width="45" stroke-linecap="round" stroke-linejoin="round">
    <path d="M 713.75 324.64 L 715.66 324.64"/>
    <path d="M 620.49 315.36 L 618.59 313.51"/>
    <path d="M 620.49 315.36 L 620.49 313.51"/>
    <path d="M 620.49 315.36 L 622.39 315.36"/>
    <path d="M 620.49 315.36 L 622.39 317.22"/>
    <path d="M 510.10 814.38 L 512.00 812.52"/>
    <path d="M 510.10 814.38 L 512.00 814.38"/>
    <path d="M 510.10 814.38 L 508.19 816.23"/>
    <path d="M 510.10 814.38 L 510.10 816.23"/>
    <path d="M 696.62 658.55 L 694.72 658.55"/>
    <path d="M 696.62 658.55 L 698.53 658.55"/>
    <path d="M 696.62 658.55 L 696.62 660.41"/>
    <path d="M 489.16 831.07 L 489.16 829.22"/>
    <path d="M 489.16 831.07 L 491.06 829.22"/>
    <path d="M 489.16 831.07 L 487.26 831.07"/>
    <path d="M 437.77 816.23 L 437.77 814.38"/>
    <path d="M 437.77 816.23 L 439.67 816.23"/>
    <path d="M 437.77 816.23 L 439.67 818.09"/>
    <path d="M 616.68 404.41 L 618.59 402.55"/>
    <path d="M 616.68 404.41 L 614.78 404.41"/>
    <path d="M 616.68 404.41 L 618.59 404.41"/>
    <path d="M 616.68 404.41 L 614.78 406.26"/>
    <path d="M 736.59 309.80 L 736.59 307.94"/>
    <path d="M 736.59 309.80 L 738.50 307.94"/>
    <path d="M 736.59 309.80 L 734.69 309.80"/>
    <path d="M 736.59 309.80 L 734.69 311.65"/>
    <path d="M 738.50 409.97 L 736.59 408.12"/>
    <path d="M 738.50 409.97 L 738.50 408.12"/>
    <path d="M 738.50 409.97 L 740.40 409.97"/>
    <path d="M 738.50 409.97 L 740.40 411.83"/>
    <path d="M 742.30 302.38 L 742.30 300.52"/>
    <path d="M 742.30 302.38 L 744.21 300.52"/>
    <path d="M 742.30 302.38 L 740.40 304.23"/>
    <path d="M 805.12 647.42 L 807.02 647.42"/>
    <path d="M 805.12 647.42 L 803.21 649.28"/>
    <path d="M 805.12 647.42 L 805.12 649.28"/>
    <path d="M 746.11 205.91 L 744.21 204.06"/>
    <path d="M 746.11 205.91 L 744.21 205.91"/>
    <path d="M 746.11 205.91 L 746.11 207.77"/>
    <path d="M 626.20 317.22 L 624.30 317.22"/>
    <path d="M 626.20 317.22 L 626.20 319.07"/>
    <path d="M 626.20 317.22 L 628.10 319.07"/>
    <path d="M 740.40 411.83 L 740.40 409.97"/>
    <path d="M 740.40 411.83 L 742.30 411.83"/>
    <path d="M 740.40 411.83 L 742.30 413.68"/>
    <path d="M 628.10 319.07 L 626.20 319.07"/>
    <path d="M 628.10 319.07 L 628.10 320.93"/>
    <path d="M 628.10 319.07 L 630.01 320.93"/>
    <path d="M 439.67 816.23 L 437.77 814.38"/>
    <path d="M 439.67 816.23 L 439.67 818.09"/>
    <path d="M 487.26 361.74 L 487.26 359.88"/>
    <path d="M 487.26 361.74 L 485.35 361.74"/>
    <path d="M 487.26 361.74 L 485.35 363.59"/>
    <path d="M 597.65 285.68 L 590.04 261.57 L 590.04 241.16 L 593.84 224.46"/>
    <path d="M 597.65 285.68 L 597.65 287.54"/>
    <path d="M 597.65 285.68 L 599.55 287.54"/>
    <path d="M 494.87 339.48 L 494.87 337.62"/>
    <path d="M 494.87 339.48 L 496.77 337.62"/>
    <path d="M 494.87 339.48 L 494.87 341.33"/>
    <path d="M 517.71 801.39 L 517.71 799.54"/>
    <path d="M 517.71 801.39 L 515.81 801.39"/>
    <path d="M 517.71 801.39 L 515.81 803.25"/>
    <path d="M 622.39 189.22 L 622.39 187.36"/>
    <path d="M 622.39 189.22 L 624.30 187.36"/>
    <path d="M 622.39 189.22 L 620.49 189.22"/>
    <path d="M 618.59 313.51 L 616.68 311.65"/>
    <path d="M 618.59 313.51 L 618.59 311.65"/>
    <path d="M 618.59 313.51 L 620.49 313.51"/>
    <path d="M 725.17 185.51 L 723.27 183.65"/>
    <path d="M 725.17 185.51 L 723.27 185.51"/>
    <path d="M 725.17 185.51 L 725.17 187.36"/>
    <path d="M 725.17 185.51 L 727.08 187.36"/>
    <path d="M 630.01 183.65 L 630.01 181.80"/>
    <path d="M 630.01 183.65 L 631.91 181.80"/>
    <path d="M 630.01 183.65 L 628.10 183.65"/>
    <path d="M 730.88 189.22 L 728.98 189.22"/>
    <path d="M 730.88 189.22 L 730.88 191.07"/>
    <path d="M 730.88 189.22 L 732.79 191.07"/>
    <path d="M 609.07 200.35 L 610.97 198.49"/>
    <path d="M 609.07 200.35 L 607.17 202.20"/>
    <path d="M 609.07 200.35 L 609.07 202.20"/>
    <path d="M 753.72 615.88 L 753.72 614.03"/>
    <path d="M 753.72 615.88 L 751.82 615.88"/>
    <path d="M 753.72 615.88 L 751.82 617.74"/>
    <path d="M 572.91 667.83 L 574.81 665.97"/>
    <path d="M 572.91 667.83 L 574.81 667.83"/>
    <path d="M 572.91 667.83 L 571.00 669.68"/>
    <path d="M 572.91 667.83 L 572.91 669.68"/>
    <path d="M 144.65 413.68 L 241.72 411.83"/>
    <path d="M 818.44 636.29 L 820.34 634.43"/>
    <path d="M 818.44 636.29 L 820.34 636.29"/>
    <path d="M 818.44 636.29 L 816.54 638.14"/>
    <path d="M 818.44 636.29 L 818.44 638.14"/>
    <path d="M 624.30 398.84 L 626.20 398.84"/>
    <path d="M 624.30 398.84 L 622.39 400.70"/>
    <path d="M 624.30 398.84 L 624.30 400.70"/>
    <path d="M 812.73 641.86 L 814.63 640.00"/>
    <path d="M 812.73 641.86 L 814.63 641.86"/>
    <path d="M 812.73 641.86 L 810.83 643.71"/>
    <path d="M 812.73 641.86 L 812.73 643.71"/>
    <path d="M 472.03 395.13 L 473.93 393.28"/>
    <path d="M 472.03 395.13 L 473.93 395.13"/>
    <path d="M 472.03 395.13 L 472.03 396.99"/>
    <path d="M 489.16 354.32 L 489.16 352.46"/>
    <path d="M 489.16 354.32 L 491.06 352.46"/>
    <path d="M 489.16 354.32 L 487.26 359.88"/>
    <path d="M 723.27 185.51 L 721.37 183.65"/>
    <path d="M 723.27 185.51 L 723.27 183.65"/>
    <path d="M 723.27 185.51 L 725.17 187.36"/>
    <path d="M 563.39 678.96 L 563.39 677.10"/>
    <path d="M 563.39 678.96 L 565.29 677.10"/>
    <path d="M 563.39 678.96 L 561.49 678.96"/>
    <path d="M 563.39 678.96 L 561.49 680.81"/>
    <path d="M 603.36 296.81 L 601.46 294.96"/>
    <path d="M 603.36 296.81 L 603.36 294.96"/>
    <path d="M 603.36 296.81 L 605.26 296.81"/>
    <path d="M 603.36 296.81 L 605.26 298.67"/>
    <path d="M 489.16 829.22 L 491.06 829.22"/>
    <path d="M 489.16 829.22 L 487.26 831.07"/>
    <path d="M 437.77 814.38 L 432.06 797.68 L 433.96 777.28 L 485.35 625.16"/>
    <path d="M 738.50 408.12 L 736.59 406.26"/>
    <path d="M 738.50 408.12 L 736.59 408.12"/>
    <path d="M 738.50 408.12 L 740.40 409.97"/>
    <path d="M 742.30 300.52 L 744.21 298.67"/>
    <path d="M 742.30 300.52 L 744.21 300.52"/>
    <path d="M 826.05 623.30 L 826.05 621.45"/>
    <path d="M 826.05 623.30 L 827.96 621.45"/>
    <path d="M 826.05 623.30 L 820.34 634.43"/>
    <path d="M 418.74 437.80 L 418.74 435.94"/>
    <path d="M 418.74 437.80 L 420.64 435.94"/>
    <path d="M 418.74 437.80 L 416.83 437.80"/>
    <path d="M 418.74 437.80 L 416.83 439.65"/>
    <path d="M 746.11 628.87 L 748.01 627.01"/>
    <path d="M 746.11 628.87 L 748.01 628.87"/>
    <path d="M 746.11 628.87 L 746.11 630.72"/>
    <path d="M 605.26 298.67 L 605.26 296.81"/>
    <path d="M 605.26 298.67 L 607.17 300.52"/>
    <path d="M 725.17 317.22 L 727.08 315.36"/>
    <path d="M 725.17 317.22 L 727.08 317.22"/>
    <path d="M 725.17 317.22 L 723.27 319.07"/>
    <path d="M 725.17 317.22 L 725.17 319.07"/>
    <path d="M 479.64 382.14 L 479.64 380.29"/>
    <path d="M 479.64 382.14 L 477.74 382.14"/>
    <path d="M 479.64 382.14 L 477.74 384.00"/>
    <path d="M 616.68 576.93 L 618.59 513.86 L 614.78 508.29 L 405.41 506.43"/>
    <path d="M 616.68 576.93 L 614.78 578.78"/>
    <path d="M 616.68 576.93 L 614.78 578.78"/>
    <path d="M 508.19 819.94 L 508.19 818.09"/>
    <path d="M 508.19 819.94 L 506.29 819.94"/>
    <path d="M 508.19 819.94 L 506.29 821.80"/>
    <path d="M 732.79 311.65 L 734.69 309.80"/>
    <path d="M 732.79 311.65 L 734.69 311.65"/>
    <path d="M 732.79 311.65 L 730.88 313.51"/>
    <path d="M 732.79 311.65 L 732.79 313.51"/>
    <path d="M 487.26 359.88 L 485.35 361.74"/>
    <path d="M 614.78 192.93 L 616.68 192.93"/>
    <path d="M 614.78 192.93 L 612.88 194.78"/>
    <path d="M 614.78 192.93 L 614.78 194.78"/>
    <path d="M 616.68 309.80 L 614.78 307.94"/>
    <path d="M 616.68 309.80 L 614.78 309.80"/>
    <path d="M 616.68 309.80 L 616.68 311.65"/>
    <path d="M 616.68 309.80 L 618.59 311.65"/>
    <path d="M 403.51 506.43 L 403.51 504.58"/>
    <path d="M 403.51 506.43 L 401.61 506.43"/>
    <path d="M 403.51 506.43 L 405.41 506.43"/>
    <path d="M 451.09 827.36 L 449.19 825.51"/>
    <path d="M 451.09 827.36 L 449.19 827.36"/>
    <path d="M 451.09 827.36 L 462.51 832.93 L 487.26 831.07"/>
    <path d="M 494.87 337.62 L 496.77 335.77"/>
    <path d="M 494.87 337.62 L 496.77 337.62"/>
    <path d="M 517.71 799.54 L 551.97 697.51"/>
    <path d="M 517.71 799.54 L 515.81 801.39"/>
    <path d="M 719.46 322.78 L 719.46 320.93"/>
    <path d="M 719.46 322.78 L 721.37 320.93"/>
    <path d="M 719.46 322.78 L 717.56 322.78"/>
    <path d="M 622.39 187.36 L 624.30 185.51"/>
    <path d="M 622.39 187.36 L 624.30 187.36"/>
    <path d="M 622.39 187.36 L 620.49 189.22"/>
    <path d="M 618.59 311.65 L 616.68 311.65"/>
    <path d="M 618.59 311.65 L 620.49 313.51"/>
    <path d="M 494.87 829.22 L 494.87 827.36"/>
    <path d="M 494.87 829.22 L 496.77 827.36"/>
    <path d="M 494.87 829.22 L 492.97 829.22"/>
    <path d="M 485.35 367.30 L 485.35 365.45"/>
    <path d="M 485.35 367.30 L 483.45 367.30"/>
    <path d="M 485.35 367.30 L 483.45 369.16"/>
    <path d="M 696.62 838.49 L 696.62 660.41"/>
    <path d="M 696.62 838.49 L 622.39 840.35"/>
    <path d="M 696.62 838.49 L 774.66 840.35"/>
    <path d="M 753.72 614.03 L 757.53 597.33 L 757.53 452.64 L 749.92 424.81"/>
    <path d="M 753.72 614.03 L 751.82 615.88"/>
    <path d="M 443.48 823.65 L 441.58 821.80"/>
    <path d="M 443.48 823.65 L 443.48 821.80"/>
    <path d="M 443.48 823.65 L 445.38 823.65"/>
    <path d="M 443.48 823.65 L 445.38 825.51"/>
    <path d="M 744.21 417.39 L 744.21 415.54"/>
    <path d="M 744.21 417.39 L 746.11 417.39"/>
    <path d="M 744.21 417.39 L 746.11 419.25"/>
    <path d="M 500.58 599.19 L 500.58 597.33"/>
    <path d="M 500.58 599.19 L 502.48 597.33"/>
    <path d="M 500.58 599.19 L 498.68 599.19"/>
    <path d="M 500.58 599.19 L 498.68 601.04"/>
    <path d="M 470.13 402.55 L 470.13 400.70"/>
    <path d="M 470.13 402.55 L 472.03 400.70"/>
    <path d="M 470.13 402.55 L 466.32 426.67"/>
    <path d="M 738.50 656.70 L 740.40 654.84"/>
    <path d="M 738.50 656.70 L 698.53 658.55"/>
    <path d="M 738.50 656.70 L 740.40 656.70"/>
    <path d="M 801.31 651.13 L 803.21 649.28"/>
    <path d="M 801.31 651.13 L 770.86 658.55 L 740.40 656.70"/>
    <path d="M 801.31 651.13 L 803.21 651.13"/>
    <path d="M 746.11 419.25 L 746.11 417.39"/>
    <path d="M 746.11 419.25 L 748.01 419.25"/>
    <path d="M 746.11 419.25 L 748.01 421.10"/>
    <path d="M 485.35 625.16 L 485.35 623.30"/>
    <path d="M 485.35 625.16 L 487.26 623.30"/>
    <path d="M 523.42 584.35 L 525.32 582.49"/>
    <path d="M 523.42 584.35 L 513.90 588.06"/>
    <path d="M 523.42 584.35 L 525.32 584.35"/>
    <path d="M 723.27 183.65 L 721.37 183.65"/>
    <path d="M 620.49 402.55 L 620.49 400.70"/>
    <path d="M 620.49 402.55 L 622.39 400.70"/>
    <path d="M 620.49 402.55 L 618.59 402.55"/>
    <path d="M 620.49 402.55 L 618.59 404.41"/>
    <path d="M 708.04 176.23 L 706.14 174.38"/>
    <path d="M 708.04 176.23 L 706.14 176.23"/>
    <path d="M 708.04 176.23 L 721.37 183.65"/>
    <path d="M 603.36 294.96 L 601.46 293.10"/>
    <path d="M 603.36 294.96 L 601.46 294.96"/>
    <path d="M 603.36 294.96 L 605.26 296.81"/>
    <path d="M 563.39 677.10 L 565.29 675.25"/>
    <path d="M 563.39 677.10 L 565.29 677.10"/>
    <path d="M 563.39 677.10 L 561.49 678.96"/>
    <path d="M 148.46 230.03 L 314.05 228.17"/>
    <path d="M 826.05 621.45 L 827.96 619.59"/>
    <path d="M 826.05 621.45 L 827.96 621.45"/>
    <path d="M 418.74 435.94 L 420.64 435.94"/>
    <path d="M 418.74 435.94 L 416.83 437.80"/>
    <path d="M 751.82 619.59 L 751.82 617.74"/>
    <path d="M 751.82 619.59 L 749.92 621.45"/>
    <path d="M 751.82 619.59 L 751.82 621.45"/>
    <path d="M 599.55 417.39 L 599.55 415.54"/>
    <path d="M 599.55 417.39 L 601.46 415.54"/>
    <path d="M 599.55 417.39 L 597.65 417.39"/>
    <path d="M 599.55 417.39 L 597.65 419.25"/>
    <path d="M 508.19 818.09 L 508.19 816.23"/>
    <path d="M 508.19 818.09 L 510.10 816.23"/>
    <path d="M 508.19 818.09 L 506.29 819.94"/>
    <path d="M 728.98 400.70 L 727.08 398.84"/>
    <path d="M 728.98 400.70 L 727.08 400.70"/>
    <path d="M 728.98 400.70 L 730.88 400.70"/>
    <path d="M 728.98 400.70 L 730.88 402.55"/>
    <path d="M 607.17 411.83 L 607.17 409.97"/>
    <path d="M 607.17 411.83 L 609.07 409.97"/>
    <path d="M 607.17 411.83 L 605.26 411.83"/>
    <path d="M 607.17 411.83 L 605.26 413.68"/>
    <path d="M 727.08 317.22 L 727.08 315.36"/>
    <path d="M 727.08 317.22 L 728.98 315.36"/>
    <path d="M 727.08 317.22 L 725.17 319.07"/>
    <path d="M 409.22 447.07 L 409.22 445.22"/>
    <path d="M 409.22 447.07 L 407.32 447.07"/>
    <path d="M 409.22 447.07 L 407.32 448.93"/>
    <path d="M 475.84 385.86 L 477.74 384.00"/>
    <path d="M 475.84 385.86 L 477.74 385.86"/>
    <path d="M 475.84 385.86 L 475.84 387.71"/>
    <path d="M 736.59 196.64 L 734.69 194.78"/>
    <path d="M 736.59 196.64 L 736.59 194.78"/>
    <path d="M 736.59 196.64 L 738.50 196.64"/>
    <path d="M 736.59 196.64 L 738.50 198.49"/>
    <path d="M 492.97 345.04 L 492.97 343.19"/>
    <path d="M 492.97 345.04 L 494.87 343.19"/>
    <path d="M 492.97 345.04 L 491.06 346.90"/>
    <path d="M 492.97 345.04 L 492.97 346.90"/>
    <path d="M 275.99 320.93 L 146.56 322.78"/>
    <path d="M 730.88 402.55 L 730.88 400.70"/>
    <path d="M 730.88 402.55 L 732.79 402.55"/>
    <path d="M 730.88 402.55 L 732.79 404.41"/>
    <path d="M 403.51 504.58 L 401.61 461.91 L 407.32 448.93"/>
    <path d="M 403.51 504.58 L 401.61 506.43"/>
    <path d="M 403.51 504.58 L 405.41 506.43"/>
    <path d="M 605.26 204.06 L 607.17 202.20"/>
    <path d="M 605.26 204.06 L 607.17 204.06"/>
    <path d="M 605.26 204.06 L 605.26 205.91"/>
    <path d="M 515.81 805.10 L 515.81 803.25"/>
    <path d="M 515.81 805.10 L 513.90 806.96"/>
    <path d="M 515.81 805.10 L 515.81 806.96"/>
    <path d="M 633.81 181.80 L 633.81 179.94"/>
    <path d="M 633.81 181.80 L 635.72 179.94"/>
    <path d="M 633.81 181.80 L 631.91 181.80"/>
    <path d="M 485.35 365.45 L 485.35 363.59"/>
    <path d="M 485.35 365.45 L 483.45 367.30"/>
    <path d="M 441.58 819.94 L 439.67 818.09"/>
    <path d="M 441.58 819.94 L 441.58 821.80"/>
    <path d="M 441.58 819.94 L 443.48 821.80"/>
    <path d="M 742.30 413.68 L 742.30 411.83"/>
    <path d="M 742.30 413.68 L 744.21 413.68"/>
    <path d="M 742.30 413.68 L 744.21 415.54"/>
    <path d="M 808.92 645.57 L 810.83 643.71"/>
    <path d="M 808.92 645.57 L 810.83 645.57"/>
    <path d="M 808.92 645.57 L 807.02 647.42"/>
    <path d="M 808.92 645.57 L 808.92 647.42"/>
    <path d="M 609.07 304.23 L 607.17 302.38"/>
    <path d="M 609.07 304.23 L 609.07 302.38"/>
    <path d="M 609.07 304.23 L 610.97 304.23"/>
    <path d="M 609.07 304.23 L 610.97 306.09"/>
    <path d="M 630.01 320.93 L 628.10 320.93"/>
    <path d="M 630.01 320.93 L 637.62 324.64"/>
    <path d="M 443.48 821.80 L 441.58 821.80"/>
    <path d="M 443.48 821.80 L 445.38 823.65"/>
    <path d="M 744.21 415.54 L 744.21 413.68"/>
    <path d="M 744.21 415.54 L 746.11 417.39"/>
    <path d="M 553.87 695.65 L 553.87 693.80"/>
    <path d="M 553.87 695.65 L 551.97 695.65"/>
    <path d="M 553.87 695.65 L 551.97 697.51"/>
    <path d="M 500.58 597.33 L 502.48 595.48"/>
    <path d="M 500.58 597.33 L 502.48 597.33"/>
    <path d="M 500.58 597.33 L 498.68 599.19"/>
    <path d="M 816.54 640.00 L 816.54 638.14"/>
    <path d="M 816.54 640.00 L 818.44 638.14"/>
    <path d="M 816.54 640.00 L 814.63 640.00"/>
    <path d="M 816.54 640.00 L 814.63 641.86"/>
    <path d="M 470.13 400.70 L 472.03 398.84"/>
    <path d="M 470.13 400.70 L 472.03 400.70"/>
    <path d="M 610.97 306.09 L 610.97 304.23"/>
    <path d="M 610.97 306.09 L 612.88 306.09"/>
    <path d="M 610.97 306.09 L 612.88 307.94"/>
    <path d="M 612.88 406.26 L 614.78 404.41"/>
    <path d="M 612.88 406.26 L 614.78 406.26"/>
    <path d="M 612.88 406.26 L 610.97 408.12"/>
    <path d="M 612.88 406.26 L 612.88 408.12"/>
    <path d="M 620.49 400.70 L 622.39 400.70"/>
    <path d="M 620.49 400.70 L 618.59 402.55"/>
    <path d="M 527.23 582.49 L 525.32 582.49"/>
    <path d="M 527.23 582.49 L 614.78 578.78"/>
    <path d="M 527.23 582.49 L 525.32 584.35"/>
    <path d="M 591.94 421.10 L 593.84 419.25"/>
    <path d="M 591.94 421.10 L 593.84 421.10"/>
    <path d="M 591.94 421.10 L 567.20 428.52 L 466.32 426.67"/>
    <path d="M 740.40 306.09 L 740.40 304.23"/>
    <path d="M 740.40 306.09 L 738.50 306.09"/>
    <path d="M 740.40 306.09 L 738.50 307.94"/>
    <path d="M 803.21 651.13 L 803.21 649.28"/>
    <path d="M 803.21 651.13 L 805.12 649.28"/>
    <path d="M 637.62 324.64 L 639.52 324.64"/>
    <path d="M 637.62 324.64 L 639.52 326.49"/>
    <path d="M 622.39 317.22 L 622.39 315.36"/>
    <path d="M 622.39 317.22 L 624.30 317.22"/>
    <path d="M 614.78 406.26 L 614.78 404.41"/>
    <path d="M 614.78 406.26 L 612.88 408.12"/>
    <path d="M 751.82 617.74 L 751.82 615.88"/>
    <path d="M 599.55 415.54 L 601.46 415.54"/>
    <path d="M 599.55 415.54 L 597.65 417.39"/>
    <path d="M 755.63 228.17 L 753.72 226.32"/>
    <path d="M 755.63 228.17 L 755.63 226.32"/>
    <path d="M 755.63 228.17 L 759.43 257.86 L 753.72 281.97"/>
    <path d="M 498.68 602.90 L 498.68 601.04"/>
    <path d="M 498.68 602.90 L 496.77 602.90"/>
    <path d="M 498.68 602.90 L 496.77 604.75"/>
    <path d="M 734.69 192.93 L 732.79 191.07"/>
    <path d="M 734.69 192.93 L 732.79 192.93"/>
    <path d="M 734.69 192.93 L 734.69 194.78"/>
    <path d="M 734.69 192.93 L 736.59 194.78"/>
    <path d="M 409.22 445.22 L 414.93 439.65"/>
    <path d="M 409.22 445.22 L 407.32 447.07"/>
    <path d="M 736.59 194.78 L 734.69 194.78"/>
    <path d="M 736.59 194.78 L 738.50 196.64"/>
    <path d="M 492.97 343.19 L 494.87 341.33"/>
    <path d="M 492.97 343.19 L 494.87 343.19"/>
    <path d="M 561.49 680.81 L 561.49 678.96"/>
    <path d="M 561.49 680.81 L 559.58 680.81"/>
    <path d="M 561.49 680.81 L 559.58 682.67"/>
    <path d="M 742.30 204.06 L 740.40 202.20"/>
    <path d="M 742.30 204.06 L 742.30 202.20"/>
    <path d="M 742.30 204.06 L 744.21 204.06"/>
    <path d="M 742.30 204.06 L 744.21 205.91"/>
    <path d="M 626.20 185.51 L 626.20 183.65"/>
    <path d="M 626.20 185.51 L 628.10 183.65"/>
    <path d="M 626.20 185.51 L 624.30 185.51"/>
    <path d="M 626.20 185.51 L 624.30 187.36"/>
    <path d="M 749.92 424.81 L 748.01 422.96"/>
    <path d="M 749.92 424.81 L 749.92 422.96"/>
    <path d="M 498.68 827.36 L 498.68 825.51"/>
    <path d="M 498.68 827.36 L 500.58 825.51"/>
    <path d="M 498.68 827.36 L 496.77 827.36"/>
    <path d="M 515.81 803.25 L 515.81 801.39"/>
    <path d="M 601.46 291.25 L 599.55 289.39"/>
    <path d="M 601.46 291.25 L 599.55 291.25"/>
    <path d="M 601.46 291.25 L 601.46 293.10"/>
    <path d="M 727.08 189.22 L 725.17 187.36"/>
    <path d="M 727.08 189.22 L 727.08 187.36"/>
    <path d="M 727.08 189.22 L 728.98 189.22"/>
    <path d="M 633.81 179.94 L 635.72 179.94"/>
    <path d="M 633.81 179.94 L 631.91 181.80"/>
    <path d="M 607.17 300.52 L 607.17 302.38"/>
    <path d="M 607.17 300.52 L 609.07 302.38"/>
    <path d="M 612.88 196.64 L 612.88 194.78"/>
    <path d="M 612.88 196.64 L 614.78 194.78"/>
    <path d="M 612.88 196.64 L 610.97 196.64"/>
    <path d="M 612.88 196.64 L 610.97 198.49"/>
    <path d="M 483.45 371.01 L 483.45 369.16"/>
    <path d="M 483.45 371.01 L 481.55 371.01"/>
    <path d="M 483.45 371.01 L 481.55 372.87"/>
    <path d="M 742.30 411.83 L 740.40 409.97"/>
    <path d="M 742.30 411.83 L 744.21 413.68"/>
    <path d="M 357.83 506.43 L 355.93 506.43"/>
    <path d="M 357.83 506.43 L 401.61 506.43"/>
    <path d="M 357.83 506.43 L 355.93 508.29"/>
    <path d="M 746.11 298.67 L 746.11 296.81"/>
    <path d="M 746.11 298.67 L 744.21 298.67"/>
    <path d="M 746.11 298.67 L 744.21 300.52"/>
    <path d="M 609.07 302.38 L 607.17 302.38"/>
    <path d="M 609.07 302.38 L 610.97 304.23"/>
    <path d="M 723.27 396.99 L 711.85 391.42"/>
    <path d="M 723.27 396.99 L 725.17 396.99"/>
    <path d="M 723.27 396.99 L 725.17 398.84"/>
    <path d="M 491.06 348.75 L 491.06 346.90"/>
    <path d="M 491.06 348.75 L 492.97 346.90"/>
    <path d="M 491.06 348.75 L 491.06 350.61"/>
    <path d="M 708.04 389.57 L 692.82 385.86 L 662.36 385.86 L 643.33 389.57 L 626.20 398.84"/>
    <path d="M 708.04 389.57 L 709.95 389.57"/>
    <path d="M 708.04 389.57 L 709.95 391.42"/>
    <path d="M 553.87 693.80 L 559.58 682.67"/>
    <path d="M 553.87 693.80 L 551.97 695.65"/>
    <path d="M 816.54 638.14 L 818.44 638.14"/>
    <path d="M 816.54 638.14 L 814.63 640.00"/>
    <path d="M 603.36 207.77 L 605.26 205.91"/>
    <path d="M 603.36 207.77 L 601.46 209.62"/>
    <path d="M 603.36 207.77 L 603.36 209.62"/>
    <path d="M 475.84 391.42 L 475.84 389.57"/>
    <path d="M 475.84 391.42 L 473.93 391.42"/>
    <path d="M 475.84 391.42 L 473.93 393.28"/>
    <path d="M 504.39 595.48 L 504.39 593.62"/>
    <path d="M 504.39 595.48 L 506.29 593.62"/>
    <path d="M 504.39 595.48 L 502.48 595.48"/>
    <path d="M 504.39 595.48 L 502.48 597.33"/>
    <path d="M 513.90 808.81 L 513.90 806.96"/>
    <path d="M 513.90 808.81 L 515.81 806.96"/>
    <path d="M 513.90 808.81 L 512.00 812.52"/>
    <path d="M 481.55 376.58 L 481.55 374.72"/>
    <path d="M 481.55 376.58 L 479.64 376.58"/>
    <path d="M 481.55 376.58 L 479.64 378.43"/>
    <path d="M 512.00 589.91 L 512.00 588.06"/>
    <path d="M 512.00 589.91 L 513.90 588.06"/>
    <path d="M 512.00 589.91 L 510.10 589.91"/>
    <path d="M 512.00 589.91 L 510.10 591.77"/>
    <path d="M 354.02 836.64 L 355.93 508.29"/>
    <path d="M 354.02 836.64 L 352.12 838.49"/>
    <path d="M 354.02 836.64 L 352.12 838.49"/>
    <path d="M 622.39 315.36 L 620.49 313.51"/>
    <path d="M 622.39 315.36 L 624.30 317.22"/>
    <path d="M 723.27 320.93 L 723.27 319.07"/>
    <path d="M 723.27 320.93 L 725.17 319.07"/>
    <path d="M 723.27 320.93 L 721.37 320.93"/>
    <path d="M 416.83 439.65 L 416.83 437.80"/>
    <path d="M 416.83 439.65 L 414.93 439.65"/>
    <path d="M 755.63 226.32 L 753.72 224.46"/>
    <path d="M 755.63 226.32 L 753.72 226.32"/>
    <path d="M 749.92 623.30 L 749.92 621.45"/>
    <path d="M 749.92 623.30 L 751.82 621.45"/>
    <path d="M 749.92 623.30 L 748.01 627.01"/>
    <path d="M 748.01 422.96 L 748.01 421.10"/>
    <path d="M 748.01 422.96 L 749.92 422.96"/>
    <path d="M 595.75 220.75 L 601.46 211.48"/>
    <path d="M 595.75 220.75 L 593.84 222.61"/>
    <path d="M 595.75 220.75 L 595.75 222.61"/>
    <path d="M 715.66 324.64 L 715.66 322.78"/>
    <path d="M 715.66 324.64 L 717.56 322.78"/>
    <path d="M 506.29 821.80 L 506.29 819.94"/>
    <path d="M 506.29 821.80 L 504.39 821.80"/>
    <path d="M 753.72 283.83 L 753.72 281.97"/>
    <path d="M 753.72 283.83 L 751.82 283.83"/>
    <path d="M 753.72 283.83 L 751.82 285.68"/>
    <path d="M 512.00 814.38 L 512.00 812.52"/>
    <path d="M 512.00 814.38 L 510.10 816.23"/>
    <path d="M 698.53 658.55 L 696.62 660.41"/>
    <path d="M 599.55 287.54 L 597.65 287.54"/>
    <path d="M 599.55 287.54 L 599.55 289.39"/>
    <path d="M 626.20 183.65 L 628.10 183.65"/>
    <path d="M 626.20 183.65 L 624.30 185.51"/>
    <path d="M 749.92 422.96 L 748.01 421.10"/>
    <path d="M 498.68 825.51 L 500.58 825.51"/>
    <path d="M 498.68 825.51 L 496.77 827.36"/>
    <path d="M 727.08 187.36 L 725.17 187.36"/>
    <path d="M 727.08 187.36 L 728.98 189.22"/>
    <path d="M 483.45 369.16 L 483.45 367.30"/>
    <path d="M 483.45 369.16 L 481.55 371.01"/>
    <path d="M 746.11 296.81 L 751.82 285.68"/>
    <path d="M 746.11 296.81 L 744.21 298.67"/>
    <path d="M 753.72 224.46 L 748.01 211.48"/>
    <path d="M 753.72 224.46 L 753.72 226.32"/>
    <path d="M 491.06 346.90 L 492.97 346.90"/>
    <path d="M 740.40 202.20 L 740.40 200.35"/>
    <path d="M 740.40 202.20 L 742.30 202.20"/>
    <path d="M 732.79 404.41 L 732.79 402.55"/>
    <path d="M 732.79 404.41 L 734.69 404.41"/>
    <path d="M 732.79 404.41 L 734.69 406.26"/>
    <path d="M 574.81 667.83 L 574.81 665.97"/>
    <path d="M 574.81 667.83 L 576.71 665.97"/>
    <path d="M 574.81 667.83 L 572.91 669.68"/>
    <path d="M 504.39 593.62 L 506.29 593.62"/>
    <path d="M 504.39 593.62 L 502.48 595.48"/>
    <path d="M 820.34 636.29 L 820.34 634.43"/>
    <path d="M 820.34 636.29 L 818.44 638.14"/>
    <path d="M 736.59 307.94 L 738.50 306.09"/>
    <path d="M 736.59 307.94 L 738.50 307.94"/>
    <path d="M 736.59 307.94 L 734.69 309.80"/>
    <path d="M 595.75 419.25 L 597.65 417.39"/>
    <path d="M 595.75 419.25 L 593.84 419.25"/>
    <path d="M 595.75 419.25 L 597.65 419.25"/>
    <path d="M 595.75 419.25 L 593.84 421.10"/>
    <path d="M 734.69 406.26 L 734.69 404.41"/>
    <path d="M 734.69 406.26 L 736.59 406.26"/>
    <path d="M 734.69 406.26 L 736.59 408.12"/>
    <path d="M 481.55 374.72 L 481.55 372.87"/>
    <path d="M 481.55 374.72 L 479.64 376.58"/>
    <path d="M 512.00 588.06 L 513.90 588.06"/>
    <path d="M 512.00 588.06 L 510.10 589.91"/>
    <path d="M 618.59 404.41 L 618.59 402.55"/>
    <path d="M 807.02 647.42 L 808.92 647.42"/>
    <path d="M 807.02 647.42 L 805.12 649.28"/>
    <path d="M 445.38 825.51 L 445.38 823.65"/>
    <path d="M 445.38 825.51 L 447.29 825.51"/>
    <path d="M 603.36 413.68 L 605.26 411.83"/>
    <path d="M 603.36 413.68 L 605.26 413.68"/>
    <path d="M 603.36 413.68 L 601.46 415.54"/>
    <path d="M 723.27 319.07 L 725.17 319.07"/>
    <path d="M 723.27 319.07 L 721.37 320.93"/>
    <path d="M 626.20 398.84 L 624.30 400.70"/>
    <path d="M 866.02 374.72 L 831.76 610.32 L 827.96 619.59"/>
    <path d="M 749.92 621.45 L 751.82 621.45"/>
    <path d="M 748.01 421.10 L 748.01 419.25"/>
    <path d="M 730.88 313.51 L 732.79 313.51"/>
    <path d="M 730.88 313.51 L 728.98 315.36"/>
    <path d="M 715.66 322.78 L 717.56 322.78"/>
    <path d="M 466.32 426.67 L 426.35 432.23 L 420.64 435.94"/>
    <path d="M 447.29 825.51 L 445.38 823.65"/>
    <path d="M 447.29 825.51 L 449.19 825.51"/>
    <path d="M 447.29 825.51 L 449.19 827.36"/>
    <path d="M 407.32 448.93 L 407.32 447.07"/>
    <path d="M 614.78 309.80 L 612.88 307.94"/>
    <path d="M 614.78 309.80 L 614.78 307.94"/>
    <path d="M 614.78 309.80 L 616.68 311.65"/>
    <path d="M 748.01 628.87 L 748.01 627.01"/>
    <path d="M 748.01 628.87 L 746.11 630.72"/>
    <path d="M 630.01 181.80 L 631.91 181.80"/>
    <path d="M 630.01 181.80 L 628.10 183.65"/>
    <path d="M 827.96 621.45 L 827.96 619.59"/>
    <path d="M 593.84 224.46 L 593.84 222.61"/>
    <path d="M 593.84 224.46 L 595.75 222.61"/>
    <path d="M 616.68 192.93 L 620.49 189.22"/>
    <path d="M 616.68 192.93 L 614.78 194.78"/>
    <path d="M 738.50 198.49 L 738.50 196.64"/>
    <path d="M 738.50 198.49 L 740.40 200.35"/>
    <path d="M 489.16 352.46 L 491.06 350.61"/>
    <path d="M 489.16 352.46 L 491.06 352.46"/>
    <path d="M 740.40 200.35 L 742.30 202.20"/>
    <path d="M 551.97 697.51 L 551.97 695.65"/>
    <path d="M 732.79 402.55 L 730.88 400.70"/>
    <path d="M 732.79 402.55 L 734.69 404.41"/>
    <path d="M 574.81 665.97 L 576.71 665.97"/>
    <path d="M 610.97 408.12 L 612.88 408.12"/>
    <path d="M 610.97 408.12 L 609.07 409.97"/>
    <path d="M 601.46 211.48 L 601.46 209.62"/>
    <path d="M 601.46 211.48 L 603.36 209.62"/>
    <path d="M 473.93 395.13 L 473.93 393.28"/>
    <path d="M 473.93 395.13 L 472.03 396.99"/>
    <path d="M 704.24 174.38 L 689.01 170.67 L 662.36 170.67 L 645.23 174.38 L 635.72 179.94"/>
    <path d="M 704.24 174.38 L 706.14 174.38"/>
    <path d="M 704.24 174.38 L 706.14 176.23"/>
    <path d="M 607.17 204.06 L 607.17 202.20"/>
    <path d="M 607.17 204.06 L 609.07 202.20"/>
    <path d="M 607.17 204.06 L 605.26 205.91"/>
    <path d="M 481.55 372.87 L 481.55 371.01"/>
    <path d="M 744.21 300.52 L 744.21 298.67"/>
    <path d="M 479.64 380.29 L 479.64 378.43"/>
    <path d="M 479.64 380.29 L 477.74 382.14"/>
    <path d="M 612.88 307.94 L 612.88 306.09"/>
    <path d="M 612.88 307.94 L 614.78 307.94"/>
    <path d="M 725.17 398.84 L 725.17 396.99"/>
    <path d="M 725.17 398.84 L 727.08 398.84"/>
    <path d="M 725.17 398.84 L 727.08 400.70"/>
    <path d="M 748.01 419.25 L 746.11 417.39"/>
    <path d="M 496.77 604.75 L 496.77 602.90"/>
    <path d="M 496.77 604.75 L 487.26 621.45"/>
    <path d="M 472.03 400.70 L 472.03 398.84"/>
    <path d="M 734.69 311.65 L 734.69 309.80"/>
    <path d="M 734.69 311.65 L 732.79 313.51"/>
    <path d="M 727.08 400.70 L 727.08 398.84"/>
    <path d="M 719.46 320.93 L 721.37 320.93"/>
    <path d="M 719.46 320.93 L 717.56 322.78"/>
    <path d="M 639.52 326.49 L 639.52 324.64"/>
    <path d="M 639.52 326.49 L 641.43 326.49"/>
    <path d="M 494.87 827.36 L 496.77 827.36"/>
    <path d="M 494.87 827.36 L 492.97 829.22"/>
    <path d="M 496.77 337.62 L 496.77 335.77"/>
    <path d="M 624.30 187.36 L 624.30 185.51"/>
    <path d="M 746.11 209.62 L 746.11 207.77"/>
    <path d="M 746.11 209.62 L 748.01 209.62"/>
    <path d="M 746.11 209.62 L 748.01 211.48"/>
    <path d="M 354.02 506.43 L 144.65 506.43 L 140.85 510.14 L 138.94 530.55 L 140.85 836.64 L 146.56 840.35 L 352.12 838.49"/>
    <path d="M 354.02 506.43 L 355.93 506.43"/>
    <path d="M 354.02 506.43 L 355.93 508.29"/>
    <path d="M 593.84 222.61 L 595.75 222.61"/>
    <path d="M 485.35 623.30 L 487.26 621.45"/>
    <path d="M 485.35 623.30 L 487.26 623.30"/>
    <path d="M 494.87 343.19 L 494.87 341.33"/>
    <path d="M 508.19 591.77 L 510.10 589.91"/>
    <path d="M 508.19 591.77 L 510.10 591.77"/>
    <path d="M 508.19 591.77 L 506.29 593.62"/>
    <path d="M 740.40 656.70 L 740.40 654.84"/>
    <path d="M 709.95 391.42 L 709.95 389.57"/>
    <path d="M 709.95 391.42 L 711.85 391.42"/>
    <path d="M 601.46 209.62 L 603.36 209.62"/>
    <path d="M 525.32 584.35 L 525.32 582.49"/>
    <path d="M 607.17 202.20 L 609.07 202.20"/>
    <path d="M 502.48 597.33 L 502.48 595.48"/>
    <path d="M 565.29 677.10 L 565.29 675.25"/>
    <path d="M 571.00 669.68 L 572.91 669.68"/>
    <path d="M 571.00 669.68 L 565.29 675.25"/>
    <path d="M 810.83 645.57 L 810.83 643.71"/>
    <path d="M 810.83 645.57 L 812.73 643.71"/>
    <path d="M 810.83 645.57 L 808.92 647.42"/>
    <path d="M 487.26 623.30 L 487.26 621.45"/>
    <path d="M 479.64 378.43 L 479.64 376.58"/>
    <path d="M 510.10 591.77 L 510.10 589.91"/>
    <path d="M 508.19 816.23 L 510.10 816.23"/>
    <path d="M 622.39 400.70 L 624.30 400.70"/>
    <path d="M 607.17 409.97 L 609.07 409.97"/>
    <path d="M 607.17 409.97 L 605.26 411.83"/>
    <path d="M 727.08 315.36 L 728.98 315.36"/>
    <path d="M 612.88 306.09 L 610.97 304.23"/>
    <path d="M 612.88 306.09 L 614.78 307.94"/>
    <path d="M 725.17 396.99 L 727.08 398.84"/>
    <path d="M 694.72 658.55 L 599.55 658.55 L 576.71 665.97"/>
    <path d="M 694.72 658.55 L 696.62 660.41"/>
    <path d="M 472.03 398.84 L 472.03 396.99"/>
    <path d="M 593.84 421.10 L 593.84 419.25"/>
    <path d="M 477.74 385.86 L 477.74 384.00"/>
    <path d="M 477.74 385.86 L 475.84 387.71"/>
    <path d="M 744.21 205.91 L 744.21 204.06"/>
    <path d="M 744.21 205.91 L 746.11 207.77"/>
    <path d="M 639.52 324.64 L 641.43 326.49"/>
    <path d="M 485.35 363.59 L 485.35 361.74"/>
    <path d="M 746.11 207.77 L 748.01 209.62"/>
    <path d="M 626.20 319.07 L 624.30 317.22"/>
    <path d="M 626.20 319.07 L 628.10 320.93"/>
    <path d="M 740.40 304.23 L 738.50 306.09"/>
    <path d="M 709.95 389.57 L 711.85 391.42"/>
    <path d="M 803.21 649.28 L 805.12 649.28"/>
    <path d="M 728.98 189.22 L 730.88 191.07"/>
    <path d="M 810.83 643.71 L 812.73 643.71"/>
    <path d="M 730.88 191.07 L 732.79 191.07"/>
    <path d="M 730.88 191.07 L 732.79 192.93"/>
    <path d="M 498.68 601.04 L 498.68 599.19"/>
    <path d="M 498.68 601.04 L 496.77 602.90"/>
    <path d="M 561.49 678.96 L 559.58 680.81"/>
    <path d="M 742.30 202.20 L 744.21 204.06"/>
    <path d="M 477.74 384.00 L 477.74 382.14"/>
    <path d="M 597.65 419.25 L 597.65 417.39"/>
    <path d="M 612.88 194.78 L 614.78 194.78"/>
    <path d="M 612.88 194.78 L 610.97 196.64"/>
    <path d="M 746.11 630.72 L 740.40 654.84"/>
    <path d="M 449.19 827.36 L 449.19 825.51"/>
    <path d="M 475.84 389.57 L 475.84 387.71"/>
    <path d="M 475.84 389.57 L 473.93 391.42"/>
    <path d="M 513.90 806.96 L 515.81 806.96"/>
    <path d="M 736.59 408.12 L 736.59 406.26"/>
    <path d="M 416.83 437.80 L 414.93 439.65"/>
    <path d="M 814.63 641.86 L 814.63 640.00"/>
    <path d="M 814.63 641.86 L 812.73 643.71"/>
    <path d="M 506.29 819.94 L 504.39 821.80"/>
    <path d="M 753.72 281.97 L 751.82 283.83"/>
    <path d="M 491.06 829.22 L 492.97 829.22"/>
    <path d="M 498.68 332.06 L 496.77 335.77"/>
    <path d="M 738.50 307.94 L 738.50 306.09"/>
    <path d="M 706.14 176.23 L 706.14 174.38"/>
    <path d="M 500.58 825.51 L 504.39 821.80"/>
    <path d="M 734.69 404.41 L 736.59 406.26"/>
    <path d="M 748.01 211.48 L 748.01 209.62"/>
    <path d="M 601.46 294.96 L 601.46 293.10"/>
    <path d="M 355.93 508.29 L 355.93 506.43"/>
    <path d="M 605.26 413.68 L 605.26 411.83"/>
    <path d="M 491.06 352.46 L 491.06 350.61"/>
    <path d="M 559.58 682.67 L 559.58 680.81"/>
    <path d="M 732.79 192.93 L 732.79 191.07"/>
    <path d="M 732.79 192.93 L 734.69 194.78"/>
    <path d="M 610.97 198.49 L 610.97 196.64"/>
    <path d="M 751.82 285.68 L 751.82 283.83"/>
    <path d="M 473.93 393.28 L 473.93 391.42"/>
    <path d="M 599.55 291.25 L 599.55 289.39"/>
    <path d="M 599.55 291.25 L 601.46 293.10"/>
    <path d="M 597.65 287.54 L 599.55 289.39"/>
    <path d="M 715.66 322.78 L 706.14 328.35 L 675.69 333.91 L 656.65 332.06 L 641.43 326.49"/>
  </g>
</svg>