<svg xmlns="http://www.w3.org/2000/svg" viewBox="0 0 1024 1024" width="1024" height="1024">
  <g fill="none" stroke="black" stroke-width="45" stroke-linecap="round" stroke-linejoin="round">
    <path d="M 869.47 158.12 L 871.33 158.12"/>
    <path d="M 176.87 382.12 L 175.01 380.24"/>
    <path d="M 176.87 382.12 L 175.01 382.12"/>
    <path d="M 176.87 382.12 L 530.62 382.12"/>
    <path d="M 176.87 382.12 L 175.01 384.00"/>
    <path d="M 813.61 781.18 L 247.62 781.18"/>
    <path d="M 813.61 781.18 L 815.48 781.18"/>
    <path d="M 813.61 781.18 L 815.48 783.06"/>
    <path d="M 534.34 150.59 L 532.48 150.59"/>
    <path d="M 534.34 150.59 L 860.16 152.47"/>
    <path d="M 534.34 150.59 L 532.48 152.47"/>
    <path d="M 243.90 781.18 L 219.69 781.18 L 201.08 777.41"/>
    <path d="M 243.90 781.18 L 245.76 781.18"/>
    <path d="M 243.90 781.18 L 245.76 783.06"/>
    <path d="M 884.36 384.00 L 882.50 382.12"/>
    <path d="M 884.36 384.00 L 884.36 382.12"/>
    <path d="M 884.36 384.00 L 884.36 608.00"/>
    <path d="M 884.36 608.00 L 882.50 609.88"/>
    <path d="M 884.36 608.00 L 884.36 609.88"/>
    <path d="M 173.15 609.88 L 173.15 608.00"/>
    <path d="M 173.15 609.88 L 175.01 609.88"/>
    <path d="M 173.15 609.88 L 173.15 611.76"/>
    <path d="M 175.01 384.00 L 175.01 382.12"/>
    <path d="M 175.01 384.00 L 173.15 608.00"/>
    <path d="M 739.14 265.41 L 666.53 267.29"/>
    <path d="M 817.34 781.18 L 815.48 781.18"/>
    <path d="M 817.34 781.18 L 852.71 779.29 L 865.75 773.65"/>
    <path d="M 817.34 781.18 L 815.48 783.06"/>
    <path d="M 532.48 152.47 L 530.62 150.59"/>
    <path d="M 532.48 152.47 L 532.48 150.59"/>
    <path d="M 532.48 152.47 L 532.48 380.24"/>
    <path d="M 247.62 781.18 L 245.76 781.18"/>
    <path d="M 247.62 781.18 L 245.76 783.06"/>
    <path d="M 320.23 265.41 L 390.98 267.29"/>
    <path d="M 871.33 160.00 L 871.33 158.12"/>
    <path d="M 871.33 160.00 L 873.19 160.00"/>
    <path d="M 871.33 160.00 L 873.19 161.88"/>
    <path d="M 182.46 762.35 L 180.60 760.47"/>
    <path d="M 182.46 762.35 L 180.60 762.35"/>
    <path d="M 182.46 762.35 L 182.46 764.24"/>
    <path d="M 815.48 783.06 L 815.48 781.18"/>
    <path d="M 815.48 783.06 L 815.48 845.18"/>
    <path d="M 245.76 783.06 L 245.76 781.18"/>
    <path d="M 245.76 783.06 L 245.76 847.06"/>
    <path d="M 884.36 611.76 L 882.50 609.88"/>
    <path d="M 884.36 611.76 L 884.36 609.88"/>
    <path d="M 884.36 611.76 L 884.36 739.76 L 878.78 760.47"/>
    <path d="M 186.18 160.00 L 188.04 158.12"/>
    <path d="M 186.18 160.00 L 188.04 160.00"/>
    <path d="M 186.18 160.00 L 184.32 161.88"/>
    <path d="M 186.18 160.00 L 186.18 161.88"/>
    <path d="M 862.02 154.35 L 860.16 152.47"/>
    <path d="M 862.02 154.35 L 862.02 152.47"/>
    <path d="M 862.02 154.35 L 863.88 154.35"/>
    <path d="M 188.04 771.76 L 186.18 769.88"/>
    <path d="M 188.04 771.76 L 188.04 769.88"/>
    <path d="M 188.04 771.76 L 189.91 771.76"/>
    <path d="M 530.62 382.12 L 532.48 380.24"/>
    <path d="M 530.62 382.12 L 532.48 382.12"/>
    <path d="M 532.48 380.24 L 532.48 382.12"/>
    <path d="M 532.48 380.24 L 534.34 382.12"/>
    <path d="M 182.46 163.76 L 184.32 161.88"/>
    <path d="M 182.46 163.76 L 184.32 163.76"/>
    <path d="M 182.46 163.76 L 182.46 165.65"/>
    <path d="M 875.05 163.76 L 873.19 161.88"/>
    <path d="M 875.05 163.76 L 875.05 161.88"/>
    <path d="M 875.05 163.76 L 876.92 163.76"/>
    <path d="M 875.05 163.76 L 876.92 165.65"/>
    <path d="M 184.32 161.88 L 186.18 161.88"/>
    <path d="M 184.32 161.88 L 184.32 163.76"/>
    <path d="M 873.19 160.00 L 871.33 158.12"/>
    <path d="M 873.19 160.00 L 873.19 161.88"/>
    <path d="M 873.19 160.00 L 875.05 161.88"/>
    <path d="M 534.34 382.12 L 532.48 382.12"/>
    <path d="M 534.34 382.12 L 882.50 382.12"/>
    <path d="M 189.91 158.12 L 208.52 150.59 L 530.62 150.59"/>
    <path d="M 189.91 158.12 L 188.04 158.12"/>
    <path d="M 189.91 158.12 L 188.04 160.00"/>
    <path d="M 882.50 382.12 L 884.36 380.24"/>
    <path d="M 882.50 382.12 L 884.36 382.12"/>
    <path d="M 193.63 773.65 L 191.77 771.76"/>
    <path d="M 193.63 773.65 L 191.77 773.65"/>
    <path d="M 193.63 773.65 L 197.35 775.53"/>
    <path d="M 178.73 173.18 L 178.73 171.29"/>
    <path d="M 178.73 173.18 L 176.87 173.18"/>
    <path d="M 178.73 173.18 L 176.87 175.06"/>
    <path d="M 188.04 160.00 L 188.04 158.12"/>
    <path d="M 188.04 160.00 L 186.18 161.88"/>
    <path d="M 199.21 775.53 L 197.35 775.53"/>
    <path d="M 199.21 775.53 L 199.21 777.41"/>
    <path d="M 199.21 775.53 L 201.08 777.41"/>
    <path d="M 184.32 768.00 L 184.32 766.12"/>
    <path d="M 184.32 768.00 L 186.18 768.00"/>
    <path d="M 184.32 768.00 L 186.18 769.88"/>
    <path d="M 176.87 175.06 L 176.87 173.18"/>
    <path d="M 176.87 175.06 L 173.15 203.29 L 175.01 380.24"/>
    <path d="M 878.78 167.53 L 876.92 165.65"/>
    <path d="M 878.78 167.53 L 878.78 165.65"/>
    <path d="M 878.78 167.53 L 884.36 188.24 L 884.36 380.24"/>
    <path d="M 869.47 771.76 L 875.05 766.12"/>
    <path d="M 869.47 771.76 L 867.61 771.76"/>
    <path d="M 869.47 771.76 L 867.61 773.65"/>
    <path d="M 882.50 609.88 L 175.01 609.88"/>
    <path d="M 882.50 609.88 L 884.36 609.88"/>
    <path d="M 186.18 769.88 L 186.18 768.00"/>
    <path d="M 186.18 769.88 L 188.04 769.88"/>
    <path d="M 867.61 773.65 L 867.61 771.76"/>
    <path d="M 867.61 773.65 L 865.75 773.65"/>
    <path d="M 201.08 777.41 L 199.21 777.41"/>
    <path d="M 173.15 608.00 L 175.01 609.88"/>
    <path d="M 175.01 382.12 L 175.01 380.24"/>
    <path d="M 191.77 771.76 L 189.91 771.76"/>
    <path d="M 191.77 771.76 L 191.77 773.65"/>
    <path d="M 532.48 150.59 L 530.62 150.59"/>
    <path d="M 188.04 769.88 L 186.18 768.00"/>
    <path d="M 188.04 769.88 L 189.91 771.76"/>
    <path d="M 862.02 152.47 L 860.16 152.47"/>
    <path d="M 862.02 152.47 L 863.88 154.35"/>
    <path d="M 173.15 611.76 L 175.01 609.88"/>
    <path d="M 173.15 611.76 L 173.15 722.82 L 175.01 745.41 L 180.60 760.47"/>
    <path d="M 180.60 762.35 L 180.60 760.47"/>
    <path d="M 180.60 762.35 L 182.46 764.24"/>
    <path d="M 878.78 760.47 L 876.92 762.35"/>
    <path d="M 878.78 760.47 L 878.78 762.35"/>
    <path d="M 875.05 161.88 L 873.19 161.88"/>
    <path d="M 875.05 161.88 L 876.92 163.76"/>
    <path d="M 182.46 764.24 L 184.32 766.12"/>
    <path d="M 875.05 764.24 L 876.92 762.35"/>
    <path d="M 875.05 764.24 L 876.92 764.24"/>
    <path d="M 875.05 764.24 L 875.05 766.12"/>
    <path d="M 876.92 762.35 L 878.78 762.35"/>
    <path d="M 876.92 762.35 L 876.92 764.24"/>
    <path d="M 186.18 161.88 L 184.32 163.76"/>
    <path d="M 178.73 171.29 L 182.46 165.65"/>
    <path d="M 178.73 171.29 L 176.87 173.18"/>
    <path d="M 182.46 165.65 L 184.32 163.76"/>
    <path d="M 876.92 163.76 L 876.92 165.65"/>
    <path d="M 876.92 163.76 L 878.78 165.65"/>
    <path d="M 184.32 766.12 L 186.18 768.00"/>
    <path d="M 878.78 165.65 L 876.92 165.65"/>
    <path d="M 884.36 382.12 L 884.36 380.24"/>
    <path d="M 197.35 775.53 L 199.21 777.41"/>
    <path d="M 867.61 771.76 L 865.75 773.65"/>
    <path d="M 189.91 771.76 L 191.77 773.65"/>
    <path d="M 588.33 498.82 L 471.04 498.82"/>
    <path d="M 878.78 762.35 L 876.92 764.24"/>
    <path d="M 875.05 766.12 L 876.92 764.24"/>
    <path d="M 863.88 154.35 L 871.33 160.00"/>
  </g>
</svg>