<svg xmlns="http://www.w3.org/2000/svg" viewBox="0 0 1024 1024" width="1024" height="1024">
  <g fill="none" stroke="black" stroke-width="45" stroke-linecap="round" stroke-linejoin="round">
    <path d="M 414.48 338.22 L 414.48 336.35"/>
    <path d="M 414.48 338.22 L 412.60 338.22"/>
    <path d="M 360.09 390.54 L 360.09 388.67"/>
    <path d="M 360.09 390.54 L 358.21 390.54"/>
    <path d="M 360.09 390.54 L 358.21 392.41"/>
    <path d="M 388.22 356.91 L 390.10 355.04"/>
    <path d="M 388.22 356.91 L 390.10 356.91"/>
    <path d="M 388.22 356.91 L 386.34 358.77"/>
    <path d="M 388.22 356.91 L 388.22 358.77"/>
    <path d="M 363.84 384.93 L 363.84 383.07"/>
    <path d="M 363.84 384.93 L 365.71 383.07"/>
    <path d="M 363.84 384.93 L 361.96 384.93"/>
    <path d="M 363.84 384.93 L 361.96 386.80"/>
    <path d="M 397.60 349.43 L 399.47 347.56"/>
    <path d="M 397.60 349.43 L 399.47 349.43"/>
    <path d="M 397.60 349.43 L 395.72 351.30"/>
    <path d="M 397.60 349.43 L 397.60 351.30"/>
    <path d="M 399.47 347.56 L 401.35 345.69"/>
    <path d="M 399.47 347.56 L 401.35 347.56"/>
    <path d="M 399.47 347.56 L 399.47 349.43"/>
    <path d="M 558.89 252.26 L 557.01 250.39"/>
    <path d="M 558.89 252.26 L 558.89 254.13"/>
    <path d="M 558.89 252.26 L 560.76 254.13"/>
    <path d="M 328.21 497.05 L 326.33 495.18"/>
    <path d="M 328.21 497.05 L 326.33 497.05"/>
    <path d="M 328.21 497.05 L 692.04 495.18"/>
    <path d="M 609.52 341.96 L 607.65 340.09"/>
    <path d="M 609.52 341.96 L 609.52 340.09"/>
    <path d="M 609.52 341.96 L 611.40 341.96"/>
    <path d="M 313.20 648.41 L 311.33 646.54"/>
    <path d="M 313.20 648.41 L 311.33 648.41"/>
    <path d="M 313.20 648.41 L 408.85 646.54"/>
    <path d="M 510.12 850.22 L 510.12 725.02"/>
    <path d="M 510.12 850.22 L 510.12 852.09"/>
    <path d="M 510.12 850.22 L 512.00 852.09"/>
    <path d="M 630.15 358.77 L 628.28 356.91"/>
    <path d="M 630.15 358.77 L 630.15 356.91"/>
    <path d="M 630.15 358.77 L 632.03 358.77"/>
    <path d="M 630.15 358.77 L 632.03 360.64"/>
    <path d="M 607.65 646.54 L 609.52 644.67"/>
    <path d="M 607.65 646.54 L 512.00 646.54"/>
    <path d="M 607.65 646.54 L 609.52 646.54"/>
    <path d="M 412.60 340.09 L 412.60 338.22"/>
    <path d="M 412.60 340.09 L 410.73 340.09"/>
    <path d="M 551.38 244.79 L 549.51 242.92"/>
    <path d="M 551.38 244.79 L 551.38 242.92"/>
    <path d="M 551.38 244.79 L 553.26 244.79"/>
    <path d="M 551.38 244.79 L 553.26 246.66"/>
    <path d="M 356.34 394.28 L 358.21 392.41"/>
    <path d="M 356.34 394.28 L 354.46 396.15"/>
    <path d="M 356.34 394.28 L 356.34 396.15"/>
    <path d="M 358.21 392.41 L 358.21 390.54"/>
    <path d="M 352.59 399.88 L 354.46 398.01"/>
    <path d="M 352.59 399.88 L 350.71 401.75"/>
    <path d="M 352.59 399.88 L 352.59 401.75"/>
    <path d="M 408.85 646.54 L 410.73 644.67"/>
    <path d="M 408.85 646.54 L 410.73 646.54"/>
    <path d="M 395.72 351.30 L 397.60 351.30"/>
    <path d="M 395.72 351.30 L 393.85 353.17"/>
    <path d="M 446.36 321.40 L 446.36 319.53"/>
    <path d="M 446.36 321.40 L 444.48 321.40"/>
    <path d="M 446.36 321.40 L 444.48 323.27"/>
    <path d="M 450.11 315.80 L 448.23 313.93"/>
    <path d="M 450.11 315.80 L 448.23 315.80"/>
    <path d="M 450.11 315.80 L 481.99 312.06 L 536.38 312.06 L 568.26 315.80"/>
    <path d="M 450.11 315.80 L 448.23 317.66"/>
    <path d="M 512.00 646.54 L 510.12 644.67"/>
    <path d="M 512.00 646.54 L 510.12 646.54"/>
    <path d="M 406.97 341.96 L 408.85 340.09"/>
    <path d="M 406.97 341.96 L 408.85 341.96"/>
    <path d="M 406.97 341.96 L 405.10 343.82"/>
    <path d="M 406.97 341.96 L 406.97 343.82"/>
    <path d="M 234.43 648.41 L 253.19 648.41"/>
    <path d="M 337.58 426.04 L 339.46 424.18"/>
    <path d="M 337.58 426.04 L 339.46 426.04"/>
    <path d="M 337.58 426.04 L 337.58 427.91"/>
    <path d="M 341.33 420.44 L 350.71 403.62"/>
    <path d="M 341.33 420.44 L 339.46 422.31"/>
    <path d="M 341.33 420.44 L 341.33 422.31"/>
    <path d="M 632.03 360.64 L 632.03 358.77"/>
    <path d="M 632.03 360.64 L 633.90 360.64"/>
    <path d="M 660.16 390.54 L 658.29 388.67"/>
    <path d="M 660.16 390.54 L 660.16 388.67"/>
    <path d="M 660.16 390.54 L 660.16 392.41"/>
    <path d="M 660.16 390.54 L 662.04 392.41"/>
    <path d="M 611.40 646.54 L 609.52 644.67"/>
    <path d="M 611.40 646.54 L 609.52 646.54"/>
    <path d="M 611.40 646.54 L 705.17 646.54"/>
    <path d="M 620.78 347.56 L 618.90 347.56"/>
    <path d="M 620.78 347.56 L 620.78 349.43"/>
    <path d="M 620.78 347.56 L 622.65 349.43"/>
    <path d="M 418.23 336.35 L 418.23 334.48"/>
    <path d="M 418.23 336.35 L 420.10 334.48"/>
    <path d="M 418.23 336.35 L 416.35 336.35"/>
    <path d="M 354.46 396.15 L 356.34 396.15"/>
    <path d="M 354.46 396.15 L 354.46 398.01"/>
    <path d="M 420.10 334.48 L 442.61 323.27"/>
    <path d="M 420.10 334.48 L 418.23 334.48"/>
    <path d="M 350.71 401.75 L 352.59 401.75"/>
    <path d="M 350.71 401.75 L 350.71 403.62"/>
    <path d="M 412.60 646.54 L 410.73 644.67"/>
    <path d="M 412.60 646.54 L 410.73 646.54"/>
    <path d="M 412.60 646.54 L 508.25 646.54"/>
    <path d="M 393.85 353.17 L 391.97 353.17"/>
    <path d="M 393.85 353.17 L 391.97 355.04"/>
    <path d="M 688.29 459.68 L 688.29 457.81"/>
    <path d="M 688.29 459.68 L 690.17 459.68"/>
    <path d="M 688.29 459.68 L 690.17 461.55"/>
    <path d="M 403.22 345.69 L 405.10 343.82"/>
    <path d="M 403.22 345.69 L 401.35 345.69"/>
    <path d="M 403.22 345.69 L 401.35 347.56"/>
    <path d="M 763.31 646.54 L 761.44 646.54"/>
    <path d="M 763.31 646.54 L 765.19 646.54"/>
    <path d="M 763.31 646.54 L 763.31 648.41"/>
    <path d="M 384.47 360.64 L 386.34 358.77"/>
    <path d="M 384.47 360.64 L 386.34 360.64"/>
    <path d="M 384.47 360.64 L 382.59 362.51"/>
    <path d="M 384.47 360.64 L 384.47 362.51"/>
    <path d="M 530.75 231.71 L 510.12 227.97"/>
    <path d="M 530.75 231.71 L 532.63 231.71"/>
    <path d="M 530.75 231.71 L 532.63 233.58"/>
    <path d="M 662.04 392.41 L 660.16 392.41"/>
    <path d="M 662.04 392.41 L 662.04 394.28"/>
    <path d="M 662.04 392.41 L 663.91 394.28"/>
    <path d="M 572.01 317.66 L 570.14 315.80"/>
    <path d="M 572.01 317.66 L 573.89 319.53"/>
    <path d="M 572.01 317.66 L 573.89 319.53"/>
    <path d="M 573.89 319.53 L 575.77 321.40"/>
    <path d="M 375.09 371.85 L 375.09 369.99"/>
    <path d="M 375.09 371.85 L 376.97 369.99"/>
    <path d="M 375.09 371.85 L 373.22 371.85"/>
    <path d="M 375.09 371.85 L 373.22 373.72"/>
    <path d="M 654.53 384.93 L 654.53 383.07"/>
    <path d="M 654.53 384.93 L 656.41 384.93"/>
    <path d="M 654.53 384.93 L 656.41 386.80"/>
    <path d="M 376.97 369.99 L 376.97 368.12"/>
    <path d="M 376.97 369.99 L 378.84 368.12"/>
    <path d="M 376.97 369.99 L 375.09 369.99"/>
    <path d="M 380.72 364.38 L 382.59 362.51"/>
    <path d="M 380.72 364.38 L 382.59 364.38"/>
    <path d="M 380.72 364.38 L 378.84 366.25"/>
    <path d="M 380.72 364.38 L 380.72 366.25"/>
    <path d="M 671.41 407.36 L 669.54 405.49"/>
    <path d="M 671.41 407.36 L 669.54 407.36"/>
    <path d="M 671.41 407.36 L 671.41 409.23"/>
    <path d="M 337.58 429.78 L 337.58 427.91"/>
    <path d="M 337.58 429.78 L 335.71 431.65"/>
    <path d="M 337.58 429.78 L 337.58 431.65"/>
    <path d="M 309.45 497.05 L 292.57 497.05"/>
    <path d="M 309.45 497.05 L 311.33 497.05"/>
    <path d="M 309.45 497.05 L 311.33 498.92"/>
    <path d="M 555.14 248.53 L 553.26 246.66"/>
    <path d="M 555.14 248.53 L 555.14 246.66"/>
    <path d="M 555.14 248.53 L 557.01 248.53"/>
    <path d="M 555.14 248.53 L 557.01 250.39"/>
    <path d="M 508.25 147.62 L 508.25 226.10"/>
    <path d="M 542.01 237.31 L 534.51 233.58"/>
    <path d="M 542.01 237.31 L 543.88 237.31"/>
    <path d="M 542.01 237.31 L 543.88 239.18"/>
    <path d="M 476.37 237.31 L 478.24 235.45"/>
    <path d="M 476.37 237.31 L 474.49 237.31"/>
    <path d="M 476.37 237.31 L 478.24 237.31"/>
    <path d="M 476.37 237.31 L 474.49 239.18"/>
    <path d="M 693.92 495.18 L 692.04 493.31"/>
    <path d="M 693.92 495.18 L 692.04 495.18"/>
    <path d="M 693.92 495.18 L 705.17 497.05"/>
    <path d="M 626.40 355.04 L 624.53 353.17"/>
    <path d="M 626.40 355.04 L 626.40 353.17"/>
    <path d="M 626.40 355.04 L 628.28 355.04"/>
    <path d="M 626.40 355.04 L 628.28 356.91"/>
    <path d="M 373.22 373.72 L 373.22 371.85"/>
    <path d="M 373.22 373.72 L 371.34 373.72"/>
    <path d="M 373.22 373.72 L 371.34 375.59"/>
    <path d="M 613.27 343.82 L 611.40 341.96"/>
    <path d="M 613.27 343.82 L 615.15 343.82"/>
    <path d="M 613.27 343.82 L 615.15 345.69"/>
    <path d="M 645.16 373.72 L 645.16 371.85"/>
    <path d="M 645.16 373.72 L 647.03 373.72"/>
    <path d="M 645.16 373.72 L 647.03 375.59"/>
    <path d="M 335.71 431.65 L 337.58 431.65"/>
    <path d="M 335.71 431.65 L 335.71 433.52"/>
    <path d="M 547.63 241.05 L 545.76 239.18"/>
    <path d="M 547.63 241.05 L 545.76 241.05"/>
    <path d="M 547.63 241.05 L 549.51 241.05"/>
    <path d="M 547.63 241.05 L 549.51 242.92"/>
    <path d="M 326.33 495.18 L 326.33 469.02 L 335.71 433.52"/>
    <path d="M 326.33 495.18 L 324.45 497.05"/>
    <path d="M 326.33 495.18 L 326.33 497.05"/>
    <path d="M 442.61 323.27 L 444.48 321.40"/>
    <path d="M 442.61 323.27 L 444.48 323.27"/>
    <path d="M 472.62 241.05 L 472.62 239.18"/>
    <path d="M 472.62 241.05 L 474.49 239.18"/>
    <path d="M 472.62 241.05 L 470.74 241.05"/>
    <path d="M 650.78 377.46 L 648.91 375.59"/>
    <path d="M 650.78 377.46 L 648.91 377.46"/>
    <path d="M 650.78 377.46 L 650.78 379.33"/>
    <path d="M 650.78 377.46 L 652.66 379.33"/>
    <path d="M 365.71 383.07 L 365.71 381.20"/>
    <path d="M 365.71 383.07 L 367.59 381.20"/>
    <path d="M 365.71 383.07 L 363.84 383.07"/>
    <path d="M 369.47 377.46 L 369.47 375.59"/>
    <path d="M 369.47 377.46 L 371.34 375.59"/>
    <path d="M 369.47 377.46 L 367.59 377.46"/>
    <path d="M 369.47 377.46 L 367.59 379.33"/>
    <path d="M 371.34 375.59 L 371.34 373.72"/>
    <path d="M 371.34 375.59 L 369.47 375.59"/>
    <path d="M 463.24 248.53 L 470.74 241.05"/>
    <path d="M 463.24 248.53 L 461.36 250.39"/>
    <path d="M 463.24 248.53 L 463.24 250.39"/>
    <path d="M 656.41 386.80 L 656.41 384.93"/>
    <path d="M 656.41 386.80 L 658.29 386.80"/>
    <path d="M 656.41 386.80 L 658.29 388.67"/>
    <path d="M 725.80 495.18 L 708.92 497.05"/>
    <path d="M 375.09 853.96 L 375.09 852.09"/>
    <path d="M 375.09 853.96 L 373.22 853.96"/>
    <path d="M 375.09 853.96 L 376.97 853.96"/>
    <path d="M 480.12 235.45 L 485.74 231.71 L 506.37 227.97"/>
    <path d="M 480.12 235.45 L 478.24 235.45"/>
    <path d="M 480.12 235.45 L 478.24 237.31"/>
    <path d="M 361.96 386.80 L 361.96 384.93"/>
    <path d="M 361.96 386.80 L 360.09 388.67"/>
    <path d="M 793.32 852.09 L 765.19 852.09"/>
    <path d="M 410.73 644.67 L 410.73 579.27"/>
    <path d="M 410.73 644.67 L 410.73 646.54"/>
    <path d="M 459.49 252.26 L 461.36 250.39"/>
    <path d="M 459.49 252.26 L 461.36 252.26"/>
    <path d="M 459.49 252.26 L 459.49 254.13"/>
    <path d="M 577.64 323.27 L 575.77 321.40"/>
    <path d="M 577.64 323.27 L 575.77 321.40"/>
    <path d="M 577.64 323.27 L 579.52 323.27"/>
    <path d="M 577.64 323.27 L 579.52 325.14"/>
    <path d="M 461.36 250.39 L 463.24 250.39"/>
    <path d="M 461.36 250.39 L 461.36 252.26"/>
    <path d="M 658.29 388.67 L 658.29 386.80"/>
    <path d="M 658.29 388.67 L 660.16 388.67"/>
    <path d="M 255.06 648.41 L 253.19 648.41"/>
    <path d="M 255.06 648.41 L 256.94 648.41"/>
    <path d="M 255.06 648.41 L 255.06 650.28"/>
    <path d="M 647.03 375.59 L 647.03 373.72"/>
    <path d="M 647.03 375.59 L 648.91 375.59"/>
    <path d="M 647.03 375.59 L 648.91 377.46"/>
    <path d="M 534.51 233.58 L 532.63 231.71"/>
    <path d="M 534.51 233.58 L 532.63 233.58"/>
    <path d="M 508.25 646.54 L 510.12 644.67"/>
    <path d="M 508.25 646.54 L 510.12 646.54"/>
    <path d="M 570.14 315.80 L 570.14 313.93"/>
    <path d="M 570.14 315.80 L 568.26 315.80"/>
    <path d="M 707.05 644.67 L 705.17 646.54"/>
    <path d="M 707.05 644.67 L 708.92 646.54"/>
    <path d="M 560.76 254.13 L 558.89 254.13"/>
    <path d="M 560.76 254.13 L 560.76 256.00"/>
    <path d="M 405.10 343.82 L 406.97 343.82"/>
    <path d="M 414.48 336.35 L 416.35 336.35"/>
    <path d="M 414.48 336.35 L 412.60 338.22"/>
    <path d="M 617.03 347.56 L 615.15 345.69"/>
    <path d="M 617.03 347.56 L 617.03 345.69"/>
    <path d="M 617.03 347.56 L 618.90 347.56"/>
    <path d="M 549.51 241.05 L 549.51 242.92"/>
    <path d="M 549.51 241.05 L 551.38 242.92"/>
    <path d="M 339.46 422.31 L 341.33 422.31"/>
    <path d="M 339.46 422.31 L 339.46 424.18"/>
    <path d="M 682.67 439.12 L 682.67 437.26"/>
    <path d="M 682.67 439.12 L 684.54 439.12"/>
    <path d="M 682.67 439.12 L 684.54 440.99"/>
    <path d="M 609.52 340.09 L 607.65 340.09"/>
    <path d="M 609.52 340.09 L 611.40 341.96"/>
    <path d="M 667.66 401.75 L 665.79 399.88"/>
    <path d="M 667.66 401.75 L 667.66 403.62"/>
    <path d="M 667.66 401.75 L 669.54 403.62"/>
    <path d="M 401.35 347.56 L 401.35 345.69"/>
    <path d="M 401.35 347.56 L 399.47 349.43"/>
    <path d="M 609.52 579.27 L 609.52 644.67"/>
    <path d="M 410.73 340.09 L 412.60 338.22"/>
    <path d="M 410.73 340.09 L 408.85 340.09"/>
    <path d="M 410.73 340.09 L 408.85 341.96"/>
    <path d="M 630.15 356.91 L 628.28 355.04"/>
    <path d="M 630.15 356.91 L 628.28 356.91"/>
    <path d="M 630.15 356.91 L 632.03 358.77"/>
    <path d="M 551.38 242.92 L 549.51 242.92"/>
    <path d="M 551.38 242.92 L 553.26 244.79"/>
    <path d="M 684.54 440.99 L 684.54 439.12"/>
    <path d="M 684.54 440.99 L 688.29 457.81"/>
    <path d="M 382.59 362.51 L 384.47 362.51"/>
    <path d="M 382.59 362.51 L 382.59 364.38"/>
    <path d="M 391.97 355.04 L 391.97 353.17"/>
    <path d="M 391.97 355.04 L 390.10 355.04"/>
    <path d="M 391.97 355.04 L 390.10 356.91"/>
    <path d="M 358.21 390.54 L 360.09 388.67"/>
    <path d="M 446.36 319.53 L 448.23 317.66"/>
    <path d="M 446.36 319.53 L 444.48 321.40"/>
    <path d="M 622.65 349.43 L 620.78 349.43"/>
    <path d="M 622.65 349.43 L 622.65 351.30"/>
    <path d="M 622.65 349.43 L 624.53 351.30"/>
    <path d="M 311.33 648.41 L 311.33 646.54"/>
    <path d="M 311.33 648.41 L 309.45 648.41"/>
    <path d="M 508.25 227.97 L 508.25 226.10"/>
    <path d="M 508.25 227.97 L 506.37 227.97"/>
    <path d="M 508.25 227.97 L 510.12 227.97"/>
    <path d="M 660.16 388.67 L 658.29 386.80"/>
    <path d="M 408.85 341.96 L 408.85 340.09"/>
    <path d="M 408.85 341.96 L 406.97 343.82"/>
    <path d="M 690.17 461.55 L 690.17 459.68"/>
    <path d="M 690.17 461.55 L 692.04 493.31"/>
    <path d="M 313.20 497.05 L 311.33 497.05"/>
    <path d="M 313.20 497.05 L 324.45 497.05"/>
    <path d="M 313.20 497.05 L 311.33 498.92"/>
    <path d="M 378.84 366.25 L 380.72 366.25"/>
    <path d="M 378.84 366.25 L 376.97 368.12"/>
    <path d="M 378.84 366.25 L 378.84 368.12"/>
    <path d="M 339.46 426.04 L 339.46 424.18"/>
    <path d="M 339.46 426.04 L 337.58 427.91"/>
    <path d="M 388.22 358.77 L 390.10 356.91"/>
    <path d="M 388.22 358.77 L 386.34 358.77"/>
    <path d="M 388.22 358.77 L 386.34 360.64"/>
    <path d="M 708.92 646.54 L 761.44 646.54"/>
    <path d="M 390.10 356.91 L 390.10 355.04"/>
    <path d="M 763.31 850.22 L 763.31 648.41"/>
    <path d="M 763.31 850.22 L 761.44 852.09"/>
    <path d="M 763.31 850.22 L 763.31 852.09"/>
    <path d="M 763.31 850.22 L 765.19 852.09"/>
    <path d="M 444.48 321.40 L 444.48 323.27"/>
    <path d="M 448.23 315.80 L 448.23 313.93"/>
    <path d="M 448.23 315.80 L 448.23 317.66"/>
    <path d="M 663.91 394.28 L 662.04 394.28"/>
    <path d="M 663.91 394.28 L 663.91 396.15"/>
    <path d="M 688.29 457.81 L 690.17 459.68"/>
    <path d="M 652.66 381.20 L 650.78 379.33"/>
    <path d="M 652.66 381.20 L 652.66 379.33"/>
    <path d="M 652.66 381.20 L 654.53 383.07"/>
    <path d="M 761.44 646.54 L 763.31 648.41"/>
    <path d="M 761.44 852.09 L 643.28 850.22"/>
    <path d="M 761.44 852.09 L 763.31 852.09"/>
    <path d="M 669.54 403.62 L 667.66 403.62"/>
    <path d="M 669.54 403.62 L 669.54 405.49"/>
    <path d="M 680.79 433.52 L 680.79 431.65"/>
    <path d="M 680.79 433.52 L 682.67 433.52"/>
    <path d="M 680.79 433.52 L 682.67 435.39"/>
    <path d="M 581.39 325.14 L 579.52 323.27"/>
    <path d="M 581.39 325.14 L 579.52 325.14"/>
    <path d="M 581.39 325.14 L 602.02 336.35"/>
    <path d="M 219.43 853.96 L 226.93 855.82 L 255.06 852.09"/>
    <path d="M 311.33 498.92 L 311.33 497.05"/>
    <path d="M 311.33 498.92 L 311.33 646.54"/>
    <path d="M 416.35 336.35 L 418.23 334.48"/>
    <path d="M 553.26 244.79 L 553.26 246.66"/>
    <path d="M 553.26 244.79 L 555.14 246.66"/>
    <path d="M 386.34 360.64 L 386.34 358.77"/>
    <path d="M 386.34 360.64 L 384.47 362.51"/>
    <path d="M 602.02 336.35 L 603.90 336.35"/>
    <path d="M 602.02 336.35 L 603.90 338.22"/>
    <path d="M 707.05 498.92 L 705.17 497.05"/>
    <path d="M 707.05 498.92 L 707.05 497.05"/>
    <path d="M 707.05 498.92 L 708.92 497.05"/>
    <path d="M 708.92 497.05 L 707.05 497.05"/>
    <path d="M 643.28 850.22 L 643.28 725.02"/>
    <path d="M 643.28 850.22 L 512.00 852.09"/>
    <path d="M 765.19 852.09 L 763.31 852.09"/>
    <path d="M 654.53 383.07 L 656.41 384.93"/>
    <path d="M 624.53 351.30 L 622.65 351.30"/>
    <path d="M 624.53 351.30 L 624.53 353.17"/>
    <path d="M 624.53 351.30 L 626.40 353.17"/>
    <path d="M 557.01 250.39 L 557.01 248.53"/>
    <path d="M 376.97 368.12 L 378.84 368.12"/>
    <path d="M 376.97 368.12 L 375.09 369.99"/>
    <path d="M 543.88 239.18 L 543.88 237.31"/>
    <path d="M 543.88 239.18 L 545.76 239.18"/>
    <path d="M 543.88 239.18 L 545.76 241.05"/>
    <path d="M 660.16 392.41 L 662.04 394.28"/>
    <path d="M 350.71 403.62 L 352.59 401.75"/>
    <path d="M 354.46 398.01 L 356.34 396.15"/>
    <path d="M 555.14 246.66 L 553.26 246.66"/>
    <path d="M 555.14 246.66 L 557.01 248.53"/>
    <path d="M 615.15 345.69 L 615.15 343.82"/>
    <path d="M 615.15 345.69 L 617.03 345.69"/>
    <path d="M 663.91 398.01 L 663.91 396.15"/>
    <path d="M 663.91 398.01 L 665.79 398.01"/>
    <path d="M 663.91 398.01 L 665.79 399.88"/>
    <path d="M 763.31 648.41 L 765.19 646.54"/>
    <path d="M 626.40 353.17 L 624.53 353.17"/>
    <path d="M 626.40 353.17 L 628.28 355.04"/>
    <path d="M 373.22 371.85 L 375.09 369.99"/>
    <path d="M 373.22 371.85 L 371.34 373.72"/>
    <path d="M 669.54 407.36 L 669.54 405.49"/>
    <path d="M 669.54 407.36 L 671.41 409.23"/>
    <path d="M 532.63 231.71 L 532.63 233.58"/>
    <path d="M 628.28 355.04 L 628.28 356.91"/>
    <path d="M 472.62 239.18 L 474.49 237.31"/>
    <path d="M 472.62 239.18 L 474.49 239.18"/>
    <path d="M 472.62 239.18 L 470.74 241.05"/>
    <path d="M 474.49 237.31 L 474.49 239.18"/>
    <path d="M 603.90 338.22 L 603.90 336.35"/>
    <path d="M 603.90 338.22 L 605.77 338.22"/>
    <path d="M 692.04 495.18 L 692.04 493.31"/>
    <path d="M 365.71 381.20 L 367.59 379.33"/>
    <path d="M 365.71 381.20 L 367.59 381.20"/>
    <path d="M 365.71 381.20 L 363.84 383.07"/>
    <path d="M 369.47 375.59 L 371.34 373.72"/>
    <path d="M 369.47 375.59 L 367.59 377.46"/>
    <path d="M 367.59 379.33 L 367.59 377.46"/>
    <path d="M 367.59 379.33 L 367.59 381.20"/>
    <path d="M 656.41 384.93 L 658.29 386.80"/>
    <path d="M 671.41 409.23 L 680.79 431.65"/>
    <path d="M 545.76 241.05 L 545.76 239.18"/>
    <path d="M 682.67 433.52 L 680.79 431.65"/>
    <path d="M 682.67 433.52 L 682.67 435.39"/>
    <path d="M 579.52 325.14 L 579.52 323.27"/>
    <path d="M 648.91 377.46 L 648.91 375.59"/>
    <path d="M 648.91 377.46 L 650.78 379.33"/>
    <path d="M 478.24 237.31 L 478.24 235.45"/>
    <path d="M 361.96 384.93 L 363.84 383.07"/>
    <path d="M 665.79 399.88 L 665.79 398.01"/>
    <path d="M 255.06 852.09 L 255.06 650.28"/>
    <path d="M 255.06 852.09 L 373.22 853.96"/>
    <path d="M 326.33 497.05 L 324.45 497.05"/>
    <path d="M 783.94 646.54 L 765.19 646.54"/>
    <path d="M 373.22 853.96 L 375.09 852.09"/>
    <path d="M 570.14 313.93 L 568.26 274.69 L 560.76 256.00"/>
    <path d="M 570.14 313.93 L 568.26 315.80"/>
    <path d="M 650.78 379.33 L 652.66 379.33"/>
    <path d="M 605.77 338.22 L 603.90 336.35"/>
    <path d="M 605.77 338.22 L 607.65 340.09"/>
    <path d="M 253.19 648.41 L 255.06 650.28"/>
    <path d="M 682.67 437.26 L 682.67 435.39"/>
    <path d="M 682.67 437.26 L 684.54 439.12"/>
    <path d="M 632.03 358.77 L 633.90 360.64"/>
    <path d="M 609.52 646.54 L 609.52 644.67"/>
    <path d="M 397.60 351.30 L 399.47 349.43"/>
    <path d="M 461.36 252.26 L 463.24 250.39"/>
    <path d="M 461.36 252.26 L 459.49 254.13"/>
    <path d="M 558.89 254.13 L 560.76 256.00"/>
    <path d="M 256.94 648.41 L 309.45 648.41"/>
    <path d="M 256.94 648.41 L 255.06 650.28"/>
    <path d="M 510.12 852.09 L 512.00 852.09"/>
    <path d="M 510.12 852.09 L 376.97 853.96"/>
    <path d="M 705.17 497.05 L 707.05 497.05"/>
    <path d="M 311.33 646.54 L 309.45 648.41"/>
    <path d="M 508.25 226.10 L 506.37 227.97"/>
    <path d="M 508.25 226.10 L 510.12 227.97"/>
    <path d="M 339.46 424.18 L 341.33 422.31"/>
    <path d="M 390.10 355.04 L 391.97 353.17"/>
    <path d="M 448.23 313.93 L 448.23 284.03 L 451.99 267.21 L 459.49 254.13"/>
    <path d="M 375.09 728.76 L 375.09 852.09"/>
    <path d="M 620.78 349.43 L 618.90 347.56"/>
    <path d="M 620.78 349.43 L 622.65 351.30"/>
    <path d="M 633.90 360.64 L 645.16 371.85"/>
    <path d="M 667.66 403.62 L 669.54 405.49"/>
    <path d="M 382.59 364.38 L 384.47 362.51"/>
    <path d="M 382.59 364.38 L 380.72 366.25"/>
    <path d="M 645.16 371.85 L 647.03 373.72"/>
    <path d="M 662.04 394.28 L 663.91 396.15"/>
    <path d="M 622.65 351.30 L 624.53 353.17"/>
    <path d="M 543.88 237.31 L 545.76 239.18"/>
    <path d="M 378.84 368.12 L 380.72 366.25"/>
    <path d="M 615.15 343.82 L 617.03 345.69"/>
    <path d="M 337.58 431.65 L 335.71 433.52"/>
    <path d="M 663.91 396.15 L 665.79 398.01"/>
    <path d="M 375.09 852.09 L 376.97 853.96"/>
    <path d="M 647.03 373.72 L 648.91 375.59"/>
    <path d="M 617.03 345.69 L 618.90 347.56"/>
    <path d="M 510.12 577.40 L 510.12 646.54"/>
    <path d="M 708.92 646.54 L 705.17 646.54"/>
    <path d="M 707.05 498.92 L 707.05 646.54"/>
    <path d="M 416.35 336.35 L 412.60 340.09"/>
  </g>
</svg>